<svg width="24" height="24" viewBox="0 0 24 24" fill="none" xmlns="http://www.w3.org/2000/svg">
<path d="M19.7925 13.626L21.9404 18.9918C22.1554 19.5293 21.7601 20.1138 21.1807 20.1138H2.81906C2.24041 20.1138 1.84431 19.5293 2.05932 18.9918L4.20796 13.626" stroke="#777777" stroke-width="1.2" stroke-miterlimit="10" stroke-linecap="round" stroke-linejoin="round"/>
<path d="M6.15668 16.2235C6.51531 16.2235 6.80604 15.9328 6.80604 15.5742C6.80604 15.2155 6.51531 14.9248 6.15668 14.9248C5.79805 14.9248 5.50732 15.2155 5.50732 15.5742C5.50732 15.9328 5.79805 16.2235 6.15668 16.2235Z" fill="#777777"/>
<path d="M10.0522 16.2235C10.4108 16.2235 10.7015 15.9328 10.7015 15.5742C10.7015 15.2155 10.4108 14.9248 10.0522 14.9248C9.69356 14.9248 9.40283 15.2155 9.40283 15.5742C9.40283 15.9328 9.69356 16.2235 10.0522 16.2235Z" fill="#777777"/>
<path d="M17.8447 16.2235C18.2033 16.2235 18.494 15.9328 18.494 15.5742C18.494 15.2155 18.2033 14.9248 17.8447 14.9248C17.486 14.9248 17.1953 15.2155 17.1953 15.5742C17.1953 15.9328 17.486 16.2235 17.8447 16.2235Z" fill="#777777"/>
<path d="M13.9487 16.2235C14.3073 16.2235 14.598 15.9328 14.598 15.5742C14.598 15.2155 14.3073 14.9248 13.9487 14.9248C13.59 14.9248 13.2993 15.2155 13.2993 15.5742C13.2993 15.9328 13.59 16.2235 13.9487 16.2235Z" fill="#777777"/>
<path d="M5.50629 18.1718C5.86492 18.1718 6.15565 17.881 6.15565 17.5224C6.15565 17.1638 5.86492 16.873 5.50629 16.873C5.14766 16.873 4.85693 17.1638 4.85693 17.5224C4.85693 17.881 5.14766 18.1718 5.50629 18.1718Z" fill="#777777"/>
<path d="M18.4941 18.1718C18.8527 18.1718 19.1434 17.881 19.1434 17.5224C19.1434 17.1638 18.8527 16.873 18.4941 16.873C18.1355 16.873 17.8447 17.1638 17.8447 17.5224C17.8447 17.881 18.1355 18.1718 18.4941 18.1718Z" fill="#777777"/>
<path d="M4.20801 13.6256V9.72949" stroke="#777777" stroke-width="1.2" stroke-miterlimit="10" stroke-linecap="round" stroke-linejoin="round"/>
<path d="M19.793 9.72949V13.6256" stroke="#777777" stroke-width="1.2" stroke-miterlimit="10" stroke-linecap="round" stroke-linejoin="round"/>
<path d="M4.20801 7.78188V4.70393C4.20801 4.25227 4.57453 3.88574 5.0262 3.88574H18.9744C19.426 3.88574 19.7926 4.25227 19.7926 4.70393V7.78188" stroke="#777777" stroke-width="1.2" stroke-miterlimit="10" stroke-linecap="round" stroke-linejoin="round"/>
<path d="M6.15576 13.626H17.8442" stroke="#777777" stroke-width="1.2" stroke-miterlimit="10" stroke-linecap="round" stroke-linejoin="round"/>
<path d="M6.15576 5.83398H17.8442" stroke="#FF003C" stroke-width="1.2" stroke-miterlimit="10" stroke-linecap="round" stroke-linejoin="round"/>
<path d="M8.56592 17.5215H15.4341" stroke="#777777" stroke-width="1.2" stroke-miterlimit="10" stroke-linecap="round" stroke-linejoin="round"/>
</svg>
